<svg fill="none" height="64" viewBox="0 0 64 64" width="64" xmlns="http://www.w3.org/2000/svg"><path d="m13 11c0-1.10457.8954-2 2-2h27.5l8.5 8.5v35.5c0 1.1046-.8954 2-2 2h-34c-1.1046 0-2-.8954-2-2z" fill="#fff"/><g fill="#000"><path d="m41.7574 8h-26.7709c-1.6569 0-2.9865 1.34315-2.9865 3v41c0 2.2091 1.7909 4 4 4h4c.5523 0 1-.4477 1-1s-.4477-1-1-1h-4c-1.1046 0-2-.8954-2-2v-41c0-.5523.4477-1 1-1h26v6c0 1.6569 1.3431 3 3 3h6v34c0 .5523-.4477 1-1 1h-13c-.5523 0-1 .4477-1 1s.4477 1 1 1h13c1.6569 0 3-1.3365 3-2.9933v-34.7641c0-.7956-.3161-1.5587-.8787-2.1213l-7.2426-7.24262c-.5626-.56261-1.3257-.87868-2.1213-.87868z"/><path d="m28.7071 32.2929c-.3905-.3905-1.0237-.3905-1.4142 0l-8 8c-.286.286-.3715.7161-.2168 1.0898.1548.3737.5195.6173.9239.6173h5v13c0 .5523.4477 1 1 1h4c.5523 0 1-.4477 1-1v-13h5c.4045 0 .7691-.2436.9239-.6173s.0692-.8038-.2168-1.0898z"/></g></svg>